<svg xmlns="http://www.w3.org/2000/svg" xmlns:xlink="http://www.w3.org/1999/xlink" width="200" zoomAndPan="magnify" viewBox="0 0 150 52.499999" height="70" preserveAspectRatio="xMidYMid meet" version="1.0"><defs><clipPath id="4d8d6baabc"><path d="M 5.558594 10.257812 L 56.765625 10.257812 L 56.765625 38.523438 L 5.558594 38.523438 Z M 5.558594 10.257812 " clip-rule="nonzero"/></clipPath></defs><path fill="#232222" d="M 30.796875 14.886719 L 30.796875 15.425781 L 28.972656 15.425781 L 28.972656 37.578125 L 30.945312 37.578125 L 30.945312 38.117188 L 22.726562 38.117188 L 22.726562 37.578125 L 24.6875 37.578125 L 24.6875 18.457031 L 18.507812 38.117188 C 18.285156 38.191406 18.050781 38.246094 17.804688 38.292969 C 17.550781 38.339844 17.320312 38.363281 17.109375 38.363281 C 16.152344 38.363281 15.417969 38.128906 14.910156 37.652344 C 14.398438 37.175781 13.972656 36.367188 13.640625 35.222656 L 8.386719 16.421875 L 8.386719 37.578125 L 11.246094 37.578125 L 11.246094 38.117188 L 5.851562 38.117188 L 5.851562 37.578125 L 7.8125 37.578125 L 7.8125 15.425781 L 5.996094 15.425781 L 5.996094 14.886719 L 8.746094 14.886719 C 9.460938 14.886719 10.070312 14.917969 10.570312 14.976562 C 11.070312 15.03125 11.496094 15.167969 11.847656 15.390625 C 12.207031 15.601562 12.507812 15.917969 12.742188 16.339844 C 12.984375 16.753906 13.191406 17.316406 13.355469 18.027344 L 18.25 37.1875 L 25.191406 14.886719 Z M 30.796875 14.886719 " fill-opacity="1" fill-rule="nonzero"/><path fill="#232222" d="M 39.574219 15.375 L 39.574219 18.738281 C 39.574219 19.546875 39.355469 20.148438 38.925781 20.542969 C 38.496094 20.933594 38.035156 21.128906 37.535156 21.128906 C 37.035156 21.128906 36.578125 20.933594 36.15625 20.542969 C 35.742188 20.148438 35.535156 19.546875 35.535156 18.738281 C 35.535156 18.28125 35.617188 17.820312 35.78125 17.359375 C 35.953125 16.898438 36.195312 16.480469 36.511719 16.105469 C 36.835938 15.738281 37.234375 15.429688 37.710938 15.195312 C 38.1875 14.957031 38.742188 14.835938 39.363281 14.835938 L 52.367188 14.835938 L 52.367188 15.550781 L 39.929688 37.53125 L 45.582031 37.53125 C 46.195312 37.53125 46.710938 37.40625 47.125 37.15625 C 47.542969 36.90625 47.910156 36.59375 48.21875 36.214844 C 48.53125 35.832031 48.816406 35.421875 49.078125 34.980469 C 49.339844 34.539062 49.632812 34.128906 49.957031 33.75 C 50.277344 33.367188 50.664062 33.050781 51.117188 32.800781 C 51.570312 32.550781 52.132812 32.425781 52.796875 32.425781 L 53.515625 32.425781 C 53.515625 33.277344 53.382812 34.058594 53.113281 34.761719 C 52.851562 35.464844 52.410156 36.058594 51.792969 36.554688 C 51.175781 37.042969 50.367188 37.414062 49.363281 37.675781 C 48.363281 37.9375 47.125 38.070312 45.644531 38.070312 L 35.390625 38.070312 L 35.390625 37.355469 L 47.9375 15.375 Z M 39.574219 15.375 " fill-opacity="1" fill-rule="nonzero"/><g clip-path="url(#4d8d6baabc)"><path fill="#232222" d="M 14.484375 25.835938 C 14.171875 25.925781 13.851562 26 13.523438 26.042969 C 13.199219 26.09375 12.871094 26.113281 12.535156 26.113281 C 10.613281 26.113281 8.871094 25.332031 7.609375 24.074219 C 6.351562 22.8125 5.570312 21.070312 5.570312 19.148438 C 5.570312 17.226562 6.351562 15.484375 7.609375 14.222656 C 8.871094 12.960938 10.613281 12.183594 12.535156 12.183594 C 13.605469 12.183594 14.617188 12.421875 15.523438 12.851562 C 16.464844 13.300781 17.292969 13.953125 17.941406 14.753906 C 19.914062 17.144531 21.519531 19.648438 23.125 22.152344 C 26.429688 27.316406 29.730469 32.46875 36.1875 36.496094 C 36.777344 36.816406 37.390625 37.09375 38.03125 37.332031 C 39.507812 37.871094 41.101562 38.167969 42.769531 38.167969 C 46.574219 38.167969 50.019531 36.625 52.511719 34.132812 C 55.007812 31.636719 56.546875 28.195312 56.546875 24.390625 C 56.546875 20.585938 55.007812 17.140625 52.511719 14.648438 C 50.15625 12.289062 46.945312 10.78125 43.382812 10.625 C 43.664062 10.828125 43.847656 11.15625 43.847656 11.527344 C 43.847656 12.144531 43.347656 12.644531 42.730469 12.644531 C 42.113281 12.644531 41.617188 12.144531 41.617188 11.527344 C 41.617188 10.992188 41.996094 10.546875 42.496094 10.4375 L 42.496094 10.261719 L 42.769531 10.257812 C 46.671875 10.257812 50.203125 11.839844 52.761719 14.398438 C 55.320312 16.957031 56.898438 20.488281 56.898438 24.390625 C 56.898438 28.289062 55.320312 31.824219 52.761719 34.382812 C 50.203125 36.9375 46.671875 38.519531 42.769531 38.519531 C 41.0625 38.519531 39.425781 38.214844 37.90625 37.660156 C 36.335938 37.085938 34.894531 36.238281 33.640625 35.175781 C 28.625 31.394531 25.730469 26.871094 22.828125 22.34375 C 21.226562 19.84375 19.625 17.347656 17.671875 14.976562 L 17.804688 14.867188 L 17.671875 14.976562 C 17.050781 14.21875 16.269531 13.597656 15.375 13.171875 C 14.515625 12.765625 13.550781 12.535156 12.535156 12.535156 C 10.707031 12.535156 9.054688 13.273438 7.859375 14.472656 C 6.660156 15.671875 5.921875 17.324219 5.921875 19.148438 C 5.921875 20.976562 6.660156 22.632812 7.859375 23.828125 C 9.054688 25.027344 10.707031 25.765625 12.535156 25.765625 C 12.855469 25.765625 13.167969 25.742188 13.476562 25.699219 C 13.789062 25.65625 14.09375 25.589844 14.386719 25.503906 L 14.484375 25.839844 Z M 14.484375 25.835938 " fill-opacity="1" fill-rule="nonzero"/></g><path fill="#000000" d="M 69.789062 20.585938 L 69.789062 29.324219 L 68.636719 29.324219 L 68.636719 22.804688 L 65.734375 29.324219 L 64.929688 29.324219 L 62.007812 22.792969 L 62.007812 29.324219 L 60.859375 29.324219 L 60.859375 20.585938 L 62.101562 20.585938 L 65.332031 27.808594 L 68.566406 20.585938 Z M 69.789062 20.585938 " fill-opacity="1" fill-rule="nonzero"/><path fill="#000000" d="M 77.875 22.402344 L 77.875 29.324219 L 76.726562 29.324219 L 76.726562 28.300781 C 76.507812 28.65625 76.199219 28.929688 75.804688 29.132812 C 75.414062 29.324219 74.984375 29.421875 74.515625 29.421875 C 73.972656 29.421875 73.488281 29.3125 73.054688 29.09375 C 72.628906 28.871094 72.289062 28.535156 72.042969 28.089844 C 71.796875 27.640625 71.675781 27.09375 71.675781 26.457031 L 71.675781 22.402344 L 72.808594 22.402344 L 72.808594 26.300781 C 72.808594 26.984375 72.976562 27.511719 73.320312 27.878906 C 73.667969 28.246094 74.140625 28.429688 74.746094 28.429688 C 75.359375 28.429688 75.84375 28.242188 76.195312 27.863281 C 76.546875 27.480469 76.726562 26.925781 76.726562 26.199219 L 76.726562 22.402344 Z M 77.875 22.402344 " fill-opacity="1" fill-rule="nonzero"/><path fill="#000000" d="M 79.8125 19.980469 L 80.964844 19.980469 L 80.964844 29.324219 L 79.8125 29.324219 Z M 79.8125 19.980469 " fill-opacity="1" fill-rule="nonzero"/><path fill="#000000" d="M 84.324219 23.351562 L 84.324219 27.433594 C 84.324219 27.769531 84.394531 28.007812 84.535156 28.144531 C 84.679688 28.285156 84.929688 28.355469 85.285156 28.355469 L 86.132812 28.355469 L 86.132812 29.324219 L 85.09375 29.324219 C 84.453125 29.324219 83.972656 29.175781 83.648438 28.886719 C 83.332031 28.589844 83.175781 28.105469 83.175781 27.433594 L 83.175781 23.351562 L 82.28125 23.351562 L 82.28125 22.402344 L 83.175781 22.402344 L 83.175781 20.65625 L 84.324219 20.65625 L 84.324219 22.402344 L 86.132812 22.402344 L 86.132812 23.351562 Z M 84.324219 23.351562 " fill-opacity="1" fill-rule="nonzero"/><path fill="#000000" d="M 88.109375 21.277344 C 87.894531 21.277344 87.710938 21.203125 87.5625 21.050781 C 87.40625 20.898438 87.332031 20.710938 87.332031 20.492188 C 87.332031 20.273438 87.40625 20.089844 87.5625 19.945312 C 87.710938 19.792969 87.894531 19.714844 88.109375 19.714844 C 88.320312 19.714844 88.5 19.792969 88.648438 19.945312 C 88.792969 20.089844 88.867188 20.273438 88.867188 20.492188 C 88.867188 20.710938 88.792969 20.898438 88.648438 21.050781 C 88.5 21.203125 88.320312 21.277344 88.109375 21.277344 Z M 88.664062 22.402344 L 88.664062 29.324219 L 87.515625 29.324219 L 87.515625 22.402344 Z M 88.664062 22.402344 " fill-opacity="1" fill-rule="nonzero"/><path fill="#000000" d="M 93.078125 29.433594 C 92.546875 29.433594 92.070312 29.34375 91.644531 29.167969 C 91.222656 28.984375 90.890625 28.734375 90.648438 28.410156 C 90.40625 28.082031 90.269531 27.707031 90.246094 27.285156 L 91.433594 27.285156 C 91.472656 27.632812 91.628906 27.917969 91.917969 28.136719 C 92.210938 28.355469 92.589844 28.464844 93.058594 28.464844 C 93.496094 28.464844 93.839844 28.367188 94.089844 28.171875 C 94.347656 27.980469 94.476562 27.734375 94.476562 27.441406 C 94.476562 27.136719 94.339844 26.914062 94.074219 26.765625 C 93.804688 26.621094 93.386719 26.472656 92.820312 26.328125 C 92.3125 26.195312 91.890625 26.058594 91.5625 25.917969 C 91.238281 25.777344 90.960938 25.574219 90.730469 25.304688 C 90.5 25.03125 90.382812 24.671875 90.382812 24.21875 C 90.382812 23.867188 90.488281 23.542969 90.695312 23.25 C 90.90625 22.953125 91.207031 22.71875 91.597656 22.546875 C 91.988281 22.378906 92.429688 22.292969 92.921875 22.292969 C 93.691406 22.292969 94.304688 22.488281 94.777344 22.875 C 95.25 23.257812 95.503906 23.789062 95.535156 24.464844 L 94.394531 24.464844 C 94.359375 24.101562 94.210938 23.808594 93.945312 23.589844 C 93.683594 23.371094 93.328125 23.257812 92.886719 23.257812 C 92.46875 23.257812 92.140625 23.347656 91.898438 23.523438 C 91.65625 23.703125 91.535156 23.933594 91.535156 24.21875 C 91.535156 24.453125 91.609375 24.636719 91.753906 24.785156 C 91.898438 24.929688 92.085938 25.050781 92.3125 25.140625 C 92.535156 25.226562 92.84375 25.324219 93.242188 25.433594 C 93.734375 25.566406 94.136719 25.703125 94.449219 25.835938 C 94.761719 25.960938 95.03125 26.160156 95.25 26.417969 C 95.476562 26.683594 95.589844 27.023438 95.597656 27.441406 C 95.597656 27.820312 95.492188 28.160156 95.277344 28.464844 C 95.070312 28.769531 94.777344 29.007812 94.394531 29.175781 C 94.007812 29.347656 93.570312 29.433594 93.078125 29.433594 Z M 93.078125 29.433594 " fill-opacity="1" fill-rule="nonzero"/><path fill="#000000" d="M 103.53125 25.597656 C 103.53125 25.816406 103.519531 26.050781 103.496094 26.292969 L 97.960938 26.292969 C 98.003906 26.972656 98.238281 27.507812 98.664062 27.890625 C 99.089844 28.273438 99.605469 28.464844 100.210938 28.464844 C 100.707031 28.464844 101.121094 28.351562 101.449219 28.117188 C 101.785156 27.886719 102.019531 27.578125 102.152344 27.1875 L 103.394531 27.1875 C 103.207031 27.859375 102.835938 28.398438 102.28125 28.8125 C 101.726562 29.226562 101.035156 29.433594 100.210938 29.433594 C 99.550781 29.433594 98.960938 29.285156 98.445312 28.996094 C 97.929688 28.703125 97.519531 28.285156 97.222656 27.742188 C 96.929688 27.195312 96.785156 26.566406 96.785156 25.851562 C 96.785156 25.136719 96.925781 24.507812 97.214844 23.972656 C 97.507812 23.429688 97.910156 23.019531 98.429688 22.730469 C 98.945312 22.4375 99.539062 22.292969 100.210938 22.292969 C 100.867188 22.292969 101.445312 22.4375 101.953125 22.722656 C 102.457031 23.007812 102.847656 23.402344 103.121094 23.898438 C 103.394531 24.398438 103.53125 24.964844 103.53125 25.597656 Z M 102.347656 25.359375 C 102.347656 24.921875 102.246094 24.546875 102.054688 24.226562 C 101.855469 23.914062 101.59375 23.671875 101.257812 23.507812 C 100.929688 23.34375 100.566406 23.257812 100.164062 23.257812 C 99.578125 23.257812 99.082031 23.445312 98.675781 23.816406 C 98.265625 24.1875 98.03125 24.703125 97.972656 25.359375 Z M 102.347656 25.359375 " fill-opacity="1" fill-rule="nonzero"/><path fill="#000000" d="M 106.195312 23.523438 C 106.398438 23.128906 106.6875 22.820312 107.0625 22.601562 C 107.4375 22.382812 107.894531 22.273438 108.429688 22.273438 L 108.429688 23.460938 L 108.128906 23.460938 C 106.835938 23.460938 106.195312 24.160156 106.195312 25.5625 L 106.195312 29.324219 L 105.042969 29.324219 L 105.042969 22.402344 L 106.195312 22.402344 Z M 106.195312 23.523438 " fill-opacity="1" fill-rule="nonzero"/><path fill="#000000" d="M 112.335938 28.265625 L 114.484375 22.402344 L 115.707031 22.402344 L 112.996094 29.324219 L 111.652344 29.324219 L 108.941406 22.402344 L 110.171875 22.402344 Z M 112.335938 28.265625 " fill-opacity="1" fill-rule="nonzero"/><path fill="#000000" d="M 117.429688 21.277344 C 117.214844 21.277344 117.03125 21.203125 116.882812 21.050781 C 116.730469 20.898438 116.652344 20.710938 116.652344 20.492188 C 116.652344 20.273438 116.730469 20.089844 116.882812 19.945312 C 117.03125 19.792969 117.214844 19.714844 117.429688 19.714844 C 117.644531 19.714844 117.824219 19.792969 117.96875 19.945312 C 118.117188 20.089844 118.1875 20.273438 118.1875 20.492188 C 118.1875 20.710938 118.117188 20.898438 117.96875 21.050781 C 117.824219 21.203125 117.644531 21.277344 117.429688 21.277344 Z M 117.988281 22.402344 L 117.988281 29.324219 L 116.835938 29.324219 L 116.835938 22.402344 Z M 117.988281 22.402344 " fill-opacity="1" fill-rule="nonzero"/><path fill="#000000" d="M 119.515625 25.851562 C 119.515625 25.136719 119.65625 24.507812 119.945312 23.972656 C 120.234375 23.4375 120.632812 23.023438 121.140625 22.730469 C 121.652344 22.4375 122.234375 22.292969 122.894531 22.292969 C 123.738281 22.292969 124.4375 22.5 124.992188 22.914062 C 125.546875 23.320312 125.910156 23.894531 126.089844 24.628906 L 124.847656 24.628906 C 124.730469 24.203125 124.503906 23.871094 124.164062 23.625 C 123.820312 23.382812 123.398438 23.257812 122.894531 23.257812 C 122.234375 23.257812 121.703125 23.484375 121.296875 23.933594 C 120.894531 24.386719 120.691406 25.027344 120.691406 25.851562 C 120.691406 26.6875 120.894531 27.332031 121.296875 27.789062 C 121.703125 28.242188 122.234375 28.464844 122.894531 28.464844 C 123.398438 28.464844 123.816406 28.351562 124.152344 28.117188 C 124.488281 27.878906 124.71875 27.542969 124.847656 27.105469 L 126.089844 27.105469 C 125.898438 27.8125 125.527344 28.378906 124.976562 28.804688 C 124.421875 29.222656 123.726562 29.433594 122.894531 29.433594 C 122.234375 29.433594 121.652344 29.285156 121.140625 28.996094 C 120.632812 28.703125 120.234375 28.289062 119.945312 27.753906 C 119.65625 27.210938 119.515625 26.578125 119.515625 25.851562 Z M 119.515625 25.851562 " fill-opacity="1" fill-rule="nonzero"/><path fill="#000000" d="M 133.929688 25.597656 C 133.929688 25.816406 133.914062 26.050781 133.890625 26.292969 L 128.355469 26.292969 C 128.398438 26.972656 128.632812 27.507812 129.058594 27.890625 C 129.484375 28.273438 130 28.464844 130.605469 28.464844 C 131.101562 28.464844 131.515625 28.351562 131.84375 28.117188 C 132.179688 27.886719 132.414062 27.578125 132.550781 27.1875 L 133.789062 27.1875 C 133.601562 27.859375 133.230469 28.398438 132.675781 28.8125 C 132.121094 29.226562 131.429688 29.433594 130.605469 29.433594 C 129.945312 29.433594 129.355469 29.285156 128.839844 28.996094 C 128.324219 28.703125 127.914062 28.285156 127.617188 27.742188 C 127.324219 27.195312 127.179688 26.566406 127.179688 25.851562 C 127.179688 25.136719 127.320312 24.507812 127.609375 23.972656 C 127.902344 23.429688 128.304688 23.019531 128.824219 22.730469 C 129.339844 22.4375 129.933594 22.292969 130.605469 22.292969 C 131.261719 22.292969 131.839844 22.4375 132.347656 22.722656 C 132.851562 23.007812 133.242188 23.402344 133.515625 23.898438 C 133.789062 24.398438 133.929688 24.964844 133.929688 25.597656 Z M 132.742188 25.359375 C 132.742188 24.921875 132.640625 24.546875 132.449219 24.226562 C 132.253906 23.914062 131.988281 23.671875 131.652344 23.507812 C 131.324219 23.34375 130.960938 23.257812 130.558594 23.257812 C 129.972656 23.257812 129.476562 23.445312 129.070312 23.816406 C 128.660156 24.1875 128.425781 24.703125 128.367188 25.359375 Z M 132.742188 25.359375 " fill-opacity="1" fill-rule="nonzero"/><path fill="#000000" d="M 137.894531 29.433594 C 137.363281 29.433594 136.886719 29.34375 136.460938 29.167969 C 136.039062 28.984375 135.707031 28.734375 135.464844 28.410156 C 135.222656 28.082031 135.085938 27.707031 135.0625 27.285156 L 136.25 27.285156 C 136.285156 27.632812 136.445312 27.917969 136.734375 28.136719 C 137.027344 28.355469 137.40625 28.464844 137.875 28.464844 C 138.3125 28.464844 138.65625 28.367188 138.90625 28.171875 C 139.164062 27.980469 139.292969 27.734375 139.292969 27.441406 C 139.292969 27.136719 139.15625 26.914062 138.890625 26.765625 C 138.621094 26.621094 138.203125 26.472656 137.636719 26.328125 C 137.128906 26.195312 136.707031 26.058594 136.378906 25.917969 C 136.054688 25.777344 135.777344 25.574219 135.546875 25.304688 C 135.3125 25.03125 135.199219 24.671875 135.199219 24.21875 C 135.199219 23.867188 135.304688 23.542969 135.511719 23.25 C 135.722656 22.953125 136.023438 22.71875 136.414062 22.546875 C 136.804688 22.378906 137.246094 22.292969 137.738281 22.292969 C 138.507812 22.292969 139.121094 22.488281 139.59375 22.875 C 140.066406 23.257812 140.320312 23.789062 140.351562 24.464844 L 139.210938 24.464844 C 139.175781 24.101562 139.027344 23.808594 138.761719 23.589844 C 138.5 23.371094 138.144531 23.257812 137.703125 23.257812 C 137.285156 23.257812 136.957031 23.347656 136.714844 23.523438 C 136.472656 23.703125 136.351562 23.933594 136.351562 24.21875 C 136.351562 24.453125 136.425781 24.636719 136.570312 24.785156 C 136.714844 24.929688 136.902344 25.050781 137.128906 25.140625 C 137.351562 25.226562 137.660156 25.324219 138.058594 25.433594 C 138.550781 25.566406 138.953125 25.703125 139.265625 25.835938 C 139.578125 25.960938 139.847656 26.160156 140.066406 26.417969 C 140.292969 26.683594 140.40625 27.023438 140.414062 27.441406 C 140.414062 27.820312 140.308594 28.160156 140.09375 28.464844 C 139.886719 28.769531 139.59375 29.007812 139.210938 29.175781 C 138.824219 29.347656 138.386719 29.433594 137.894531 29.433594 Z M 137.894531 29.433594 " fill-opacity="1" fill-rule="nonzero"/></svg>