<svg xmlns="http://www.w3.org/2000/svg" xmlns:xlink="http://www.w3.org/1999/xlink"   viewBox="0 0 375 374.999991" height="500" preserveAspectRatio="xMidYMid meet" version="1.0"><defs><g/><clipPath id="7242faacc2"><path d="M 85 111.015625 L 289.746094 111.015625 L 289.746094 223.515625 L 85 223.515625 Z M 85 111.015625 " clip-rule="nonzero"/></clipPath></defs><g fill="#a9907e" fill-opacity="1"><g transform="translate(92.092334, 224.49082)"><g><path d="M 99.796875 -90.09375 L 99.796875 -88.015625 L 92.734375 -88.015625 L 92.734375 -2.078125 L 100.359375 -2.078125 L 100.359375 0 L 68.46875 0 L 68.46875 -2.078125 L 76.09375 -2.078125 L 76.09375 -76.234375 L 52.109375 0 C 51.285156 0.28125 50.382812 0.507812 49.40625 0.6875 C 48.4375 0.875 47.539062 0.96875 46.71875 0.96875 C 43.019531 0.96875 40.175781 0.046875 38.1875 -1.796875 C 36.195312 -3.648438 34.554688 -6.796875 33.265625 -11.234375 L 12.890625 -84.140625 L 12.890625 -2.078125 L 23.984375 -2.078125 L 23.984375 0 L 3.046875 0 L 3.046875 -2.078125 L 10.671875 -2.078125 L 10.671875 -88.015625 L 3.609375 -88.015625 L 3.609375 -90.09375 L 14.28125 -90.09375 C 17.050781 -90.09375 19.40625 -89.976562 21.34375 -89.75 C 23.28125 -89.519531 24.941406 -88.988281 26.328125 -88.15625 C 27.722656 -87.320312 28.878906 -86.097656 29.796875 -84.484375 C 30.722656 -82.867188 31.507812 -80.675781 32.15625 -77.90625 L 51.140625 -3.609375 L 78.03125 -90.09375 Z M 99.796875 -90.09375 "/></g></g></g><g fill="#a9907e" fill-opacity="1"><g transform="translate(199.243259, 224.49082)"><g><path d="M 20.796875 -88.015625 L 20.796875 -74.984375 C 20.796875 -71.847656 19.960938 -69.515625 18.296875 -67.984375 C 16.628906 -66.460938 14.828125 -65.703125 12.890625 -65.703125 C 10.953125 -65.703125 9.171875 -66.460938 7.546875 -67.984375 C 5.929688 -69.515625 5.125 -71.847656 5.125 -74.984375 C 5.125 -76.742188 5.445312 -78.523438 6.09375 -80.328125 C 6.738281 -82.128906 7.6875 -83.742188 8.9375 -85.171875 C 10.1875 -86.609375 11.734375 -87.785156 13.578125 -88.703125 C 15.429688 -89.628906 17.554688 -90.09375 19.953125 -90.09375 L 70.40625 -90.09375 L 70.40625 -87.328125 L 22.171875 -2.078125 L 44.078125 -2.078125 C 46.484375 -2.078125 48.492188 -2.5625 50.109375 -3.53125 C 51.722656 -4.5 53.128906 -5.722656 54.328125 -7.203125 C 55.535156 -8.679688 56.644531 -10.273438 57.65625 -11.984375 C 58.675781 -13.691406 59.804688 -15.285156 61.046875 -16.765625 C 62.296875 -18.242188 63.800781 -19.46875 65.5625 -20.4375 C 67.320312 -21.414062 69.492188 -21.90625 72.078125 -21.90625 L 74.84375 -21.90625 C 74.84375 -18.570312 74.332031 -15.539062 73.3125 -12.8125 C 72.300781 -10.09375 70.59375 -7.785156 68.1875 -5.890625 C 65.789062 -3.992188 62.648438 -2.535156 58.765625 -1.515625 C 54.890625 -0.503906 50.085938 0 44.359375 0 L 4.578125 0 L 4.578125 -2.765625 L 53.21875 -88.015625 Z M 20.796875 -88.015625 "/></g></g></g><g clip-path="url(#7242faacc2)"><path fill="#a9907e" d="M 120.636719 173.210938 C 119.386719 173.574219 118.101562 173.851562 116.789062 174.039062 C 115.496094 174.222656 114.179688 174.316406 112.851562 174.316406 C 105.171875 174.316406 98.21875 171.203125 93.183594 166.171875 C 88.152344 161.140625 85.039062 154.1875 85.039062 146.503906 C 85.039062 138.824219 88.152344 131.871094 93.183594 126.839844 C 98.21875 121.804688 105.171875 118.691406 112.851562 118.691406 C 117.121094 118.691406 121.164062 119.65625 124.785156 121.378906 C 128.539062 123.164062 131.832031 125.769531 134.433594 128.964844 C 142.300781 138.5 148.710938 148.503906 155.117188 158.503906 C 168.316406 179.109375 181.5 199.683594 207.265625 215.757812 C 209.621094 217.042969 212.078125 218.15625 214.625 219.089844 C 220.523438 221.253906 226.898438 222.433594 233.550781 222.433594 C 248.742188 222.433594 262.492188 216.273438 272.445312 206.324219 C 282.398438 196.367188 288.554688 182.617188 288.554688 167.429688 C 288.554688 152.238281 282.398438 138.488281 272.445312 128.535156 C 263.03125 119.117188 250.21875 113.101562 236.003906 112.480469 C 237.121094 113.289062 237.847656 114.601562 237.847656 116.089844 C 237.847656 118.550781 235.855469 120.542969 233.394531 120.542969 C 230.9375 120.542969 228.941406 118.550781 228.941406 116.089844 C 228.941406 113.949219 230.453125 112.160156 232.46875 111.730469 L 232.457031 111.035156 L 233.546875 111.019531 C 249.125 111.019531 263.226562 117.335938 273.433594 127.542969 C 283.644531 137.75 289.957031 151.851562 289.957031 167.429688 C 289.957031 183.007812 283.644531 197.109375 273.433594 207.316406 C 263.226562 217.527344 249.125 223.839844 233.546875 223.839844 C 226.730469 223.839844 220.191406 222.628906 214.136719 220.410156 C 207.863281 218.113281 202.113281 214.730469 197.109375 210.492188 C 177.085938 195.398438 165.519531 177.34375 153.9375 159.265625 C 147.546875 149.292969 141.152344 139.3125 133.347656 129.855469 L 133.886719 129.410156 L 133.34375 129.851562 C 130.878906 126.820312 127.75 124.347656 124.183594 122.652344 C 120.75 121.015625 116.90625 120.101562 112.847656 120.101562 C 105.554688 120.101562 98.953125 123.058594 94.171875 127.835938 C 89.394531 132.617188 86.4375 139.21875 86.4375 146.511719 C 86.4375 153.804688 89.394531 160.40625 94.171875 165.1875 C 98.953125 169.964844 105.554688 172.921875 112.847656 172.921875 C 114.128906 172.921875 115.378906 172.832031 116.59375 172.660156 C 117.84375 172.484375 119.0625 172.21875 120.242188 171.875 L 120.632812 173.21875 Z M 120.636719 173.210938 " fill-opacity="1" fill-rule="nonzero"/></g></svg>